<mxfile modified="2020-09-20T04:03:18.720Z" host="app.diagrams.net" agent="5.0 (Macintosh; Intel Mac OS X 10_15_6) AppleWebKit/537.36 (KHTML, like Gecko) Chrome/85.0.4183.102 Safari/537.36" etag="UpyISbMoAYPUEPaE9nFl" version="13.7.3" type="github">
  <diagram id="Ht1M8jgEwFfnCIfOTk4-" name="Page-1">
    <mxGraphModel dx="1298" dy="866" grid="1" gridSize="10" guides="1" tooltips="1" connect="1" arrows="1" fold="1" page="1" pageScale="1" pageWidth="1169" pageHeight="827" math="0" shadow="0">
      <root>
        <mxCell id="0" />
        <mxCell id="1" parent="0" />
        <mxCell id="WtL3sDqPvHaF7ry6ejMa-31" value="" style="rounded=0;whiteSpace=wrap;html=1;fontFamily=Verdana;fontSize=21;" vertex="1" parent="1">
          <mxGeometry x="70" y="390" width="660" height="340" as="geometry" />
        </mxCell>
        <mxCell id="WtL3sDqPvHaF7ry6ejMa-22" value="" style="ellipse;shape=cloud;whiteSpace=wrap;html=1;fontSize=27;" vertex="1" parent="1">
          <mxGeometry x="30" width="790" height="310" as="geometry" />
        </mxCell>
        <mxCell id="WtL3sDqPvHaF7ry6ejMa-7" value="" style="image;html=1;image=img/lib/clip_art/computers/Database_128x128.png" vertex="1" parent="1">
          <mxGeometry x="204" y="138" width="80" height="80" as="geometry" />
        </mxCell>
        <mxCell id="WtL3sDqPvHaF7ry6ejMa-11" value="" style="image;html=1;image=img/lib/clip_art/computers/Database_128x128.png" vertex="1" parent="1">
          <mxGeometry x="400" y="469" width="80" height="80" as="geometry" />
        </mxCell>
        <mxCell id="WtL3sDqPvHaF7ry6ejMa-13" value="" style="image;html=1;image=img/lib/clip_art/computers/Database_128x128.png" vertex="1" parent="1">
          <mxGeometry x="400" y="600" width="80" height="80" as="geometry" />
        </mxCell>
        <mxCell id="WtL3sDqPvHaF7ry6ejMa-14" value="" style="image;html=1;image=img/lib/clip_art/computers/Virtual_Application_128x128.png" vertex="1" parent="1">
          <mxGeometry x="135" y="500" width="80" height="80" as="geometry" />
        </mxCell>
        <mxCell id="WtL3sDqPvHaF7ry6ejMa-15" value="Source DB A" style="text;html=1;align=center;verticalAlign=middle;resizable=0;points=[];autosize=1;fontSize=21;fontStyle=1;fontFamily=Verdana;" vertex="1" parent="1">
          <mxGeometry x="164" y="94.25999999999999" width="160" height="30" as="geometry" />
        </mxCell>
        <mxCell id="WtL3sDqPvHaF7ry6ejMa-26" value="" style="image;html=1;image=img/lib/clip_art/computers/Database_128x128.png" vertex="1" parent="1">
          <mxGeometry x="540" y="138" width="80" height="80" as="geometry" />
        </mxCell>
        <mxCell id="WtL3sDqPvHaF7ry6ejMa-27" value="Source DB B" style="text;html=1;align=center;verticalAlign=middle;resizable=0;points=[];autosize=1;fontSize=21;fontStyle=1;fontFamily=Verdana;" vertex="1" parent="1">
          <mxGeometry x="517" y="94.25999999999999" width="160" height="30" as="geometry" />
        </mxCell>
        <mxCell id="WtL3sDqPvHaF7ry6ejMa-28" value="Local" style="text;html=1;align=center;verticalAlign=middle;resizable=0;points=[];autosize=1;fontSize=21;fontStyle=1;fontFamily=Verdana;" vertex="1" parent="1">
          <mxGeometry x="75" y="399" width="80" height="30" as="geometry" />
        </mxCell>
        <mxCell id="WtL3sDqPvHaF7ry6ejMa-29" value="Target DB A" style="text;html=1;align=center;verticalAlign=middle;resizable=0;points=[];autosize=1;fontSize=21;fontStyle=1;fontFamily=Verdana;" vertex="1" parent="1">
          <mxGeometry x="360" y="429" width="160" height="30" as="geometry" />
        </mxCell>
        <mxCell id="WtL3sDqPvHaF7ry6ejMa-30" value="Target DB B" style="text;html=1;align=center;verticalAlign=middle;resizable=0;points=[];autosize=1;fontSize=21;fontStyle=1;fontFamily=Verdana;" vertex="1" parent="1">
          <mxGeometry x="363.8" y="680" width="160" height="30" as="geometry" />
        </mxCell>
        <mxCell id="WtL3sDqPvHaF7ry6ejMa-32" value="Weaver" style="text;html=1;align=center;verticalAlign=middle;resizable=0;points=[];autosize=1;fontSize=21;fontStyle=1;fontFamily=Verdana;" vertex="1" parent="1">
          <mxGeometry x="120" y="570" width="110" height="30" as="geometry" />
        </mxCell>
        <mxCell id="WtL3sDqPvHaF7ry6ejMa-33" value="" style="endArrow=classic;startArrow=classic;html=1;fontFamily=Verdana;fontSize=21;exitX=0.25;exitY=0;exitDx=0;exitDy=0;entryX=0.5;entryY=1;entryDx=0;entryDy=0;strokeWidth=2;" edge="1" parent="1" source="WtL3sDqPvHaF7ry6ejMa-14" target="WtL3sDqPvHaF7ry6ejMa-7">
          <mxGeometry width="50" height="50" relative="1" as="geometry">
            <mxPoint x="550" y="350" as="sourcePoint" />
            <mxPoint x="600" y="300" as="targetPoint" />
            <Array as="points">
              <mxPoint x="155" y="310" />
              <mxPoint x="244" y="310" />
            </Array>
          </mxGeometry>
        </mxCell>
        <mxCell id="WtL3sDqPvHaF7ry6ejMa-34" value="" style="endArrow=classic;startArrow=classic;html=1;fontFamily=Verdana;fontSize=21;entryX=0.5;entryY=1;entryDx=0;entryDy=0;exitX=0.75;exitY=0;exitDx=0;exitDy=0;strokeWidth=2;" edge="1" parent="1" source="WtL3sDqPvHaF7ry6ejMa-14" target="WtL3sDqPvHaF7ry6ejMa-26">
          <mxGeometry width="50" height="50" relative="1" as="geometry">
            <mxPoint x="550" y="350" as="sourcePoint" />
            <mxPoint x="600" y="300" as="targetPoint" />
            <Array as="points">
              <mxPoint x="195" y="330" />
              <mxPoint x="580" y="330" />
            </Array>
          </mxGeometry>
        </mxCell>
        <mxCell id="WtL3sDqPvHaF7ry6ejMa-35" value="" style="endArrow=classic;html=1;fontFamily=Verdana;fontSize=21;exitX=0.81;exitY=0.5;exitDx=0;exitDy=0;entryX=0;entryY=0.5;entryDx=0;entryDy=0;exitPerimeter=0;" edge="1" parent="1" source="WtL3sDqPvHaF7ry6ejMa-23" target="WtL3sDqPvHaF7ry6ejMa-11">
          <mxGeometry width="50" height="50" relative="1" as="geometry">
            <mxPoint x="550" y="350" as="sourcePoint" />
            <mxPoint x="600" y="300" as="targetPoint" />
            <Array as="points">
              <mxPoint x="370" y="535" />
              <mxPoint x="370" y="509" />
            </Array>
          </mxGeometry>
        </mxCell>
        <mxCell id="WtL3sDqPvHaF7ry6ejMa-37" value="" style="shape=document;whiteSpace=wrap;html=1;boundedLbl=1;fontFamily=Verdana;fontSize=21;" vertex="1" parent="1">
          <mxGeometry x="310" y="161.74" width="48.8" height="32.53" as="geometry" />
        </mxCell>
        <mxCell id="WtL3sDqPvHaF7ry6ejMa-38" value="" style="shape=document;whiteSpace=wrap;html=1;boundedLbl=1;fontFamily=Verdana;fontSize=21;" vertex="1" parent="1">
          <mxGeometry x="395.59999999999997" y="91.73" width="48.8" height="32.53" as="geometry" />
        </mxCell>
        <mxCell id="WtL3sDqPvHaF7ry6ejMa-39" value="" style="shape=document;whiteSpace=wrap;html=1;boundedLbl=1;fontFamily=Verdana;fontSize=21;" vertex="1" parent="1">
          <mxGeometry x="395.59999999999997" y="138" width="48.8" height="32.53" as="geometry" />
        </mxCell>
        <mxCell id="WtL3sDqPvHaF7ry6ejMa-40" value="" style="shape=document;whiteSpace=wrap;html=1;boundedLbl=1;fontFamily=Verdana;fontSize=21;" vertex="1" parent="1">
          <mxGeometry x="395.59999999999997" y="185.47" width="48.8" height="32.53" as="geometry" />
        </mxCell>
        <mxCell id="WtL3sDqPvHaF7ry6ejMa-41" value="" style="shape=document;whiteSpace=wrap;html=1;boundedLbl=1;fontFamily=Verdana;fontSize=21;" vertex="1" parent="1">
          <mxGeometry x="651.2" y="161.74" width="48.8" height="32.53" as="geometry" />
        </mxCell>
        <mxCell id="WtL3sDqPvHaF7ry6ejMa-42" value="" style="endArrow=classic;html=1;fontFamily=Verdana;fontSize=21;exitX=1;exitY=0.5;exitDx=0;exitDy=0;entryX=0;entryY=0.5;entryDx=0;entryDy=0;" edge="1" parent="1" source="WtL3sDqPvHaF7ry6ejMa-7" target="WtL3sDqPvHaF7ry6ejMa-37">
          <mxGeometry width="50" height="50" relative="1" as="geometry">
            <mxPoint x="550" y="310" as="sourcePoint" />
            <mxPoint x="600" y="260" as="targetPoint" />
          </mxGeometry>
        </mxCell>
        <mxCell id="WtL3sDqPvHaF7ry6ejMa-43" value="" style="endArrow=classic;html=1;fontFamily=Verdana;fontSize=21;exitX=0.5;exitY=0;exitDx=0;exitDy=0;entryX=0;entryY=0.5;entryDx=0;entryDy=0;" edge="1" parent="1" source="WtL3sDqPvHaF7ry6ejMa-37" target="WtL3sDqPvHaF7ry6ejMa-38">
          <mxGeometry width="50" height="50" relative="1" as="geometry">
            <mxPoint x="550" y="310" as="sourcePoint" />
            <mxPoint x="600" y="260" as="targetPoint" />
            <Array as="points">
              <mxPoint x="334" y="108" />
            </Array>
          </mxGeometry>
        </mxCell>
        <mxCell id="WtL3sDqPvHaF7ry6ejMa-44" value="" style="endArrow=classic;html=1;fontFamily=Verdana;fontSize=21;exitX=0.75;exitY=0;exitDx=0;exitDy=0;entryX=0;entryY=0.5;entryDx=0;entryDy=0;" edge="1" parent="1" source="WtL3sDqPvHaF7ry6ejMa-37" target="WtL3sDqPvHaF7ry6ejMa-39">
          <mxGeometry width="50" height="50" relative="1" as="geometry">
            <mxPoint x="550" y="310" as="sourcePoint" />
            <mxPoint x="600" y="260" as="targetPoint" />
            <Array as="points">
              <mxPoint x="347" y="154" />
            </Array>
          </mxGeometry>
        </mxCell>
        <mxCell id="WtL3sDqPvHaF7ry6ejMa-45" value="" style="endArrow=classic;html=1;fontFamily=Verdana;fontSize=21;entryX=0;entryY=0.5;entryDx=0;entryDy=0;exitX=1;exitY=0.5;exitDx=0;exitDy=0;" edge="1" parent="1" source="WtL3sDqPvHaF7ry6ejMa-37" target="WtL3sDqPvHaF7ry6ejMa-40">
          <mxGeometry width="50" height="50" relative="1" as="geometry">
            <mxPoint x="360" y="140" as="sourcePoint" />
            <mxPoint x="600" y="260" as="targetPoint" />
            <Array as="points">
              <mxPoint x="370" y="178" />
              <mxPoint x="370" y="202" />
            </Array>
          </mxGeometry>
        </mxCell>
        <mxCell id="WtL3sDqPvHaF7ry6ejMa-46" value="" style="endArrow=classic;html=1;fontFamily=Verdana;fontSize=21;exitX=1;exitY=0.5;exitDx=0;exitDy=0;entryX=0.5;entryY=0;entryDx=0;entryDy=0;" edge="1" parent="1" source="WtL3sDqPvHaF7ry6ejMa-40" target="WtL3sDqPvHaF7ry6ejMa-41">
          <mxGeometry width="50" height="50" relative="1" as="geometry">
            <mxPoint x="550" y="310" as="sourcePoint" />
            <mxPoint x="600" y="260" as="targetPoint" />
            <Array as="points">
              <mxPoint x="520" y="202" />
              <mxPoint x="520" y="90" />
              <mxPoint x="676" y="90" />
            </Array>
          </mxGeometry>
        </mxCell>
        <mxCell id="WtL3sDqPvHaF7ry6ejMa-47" value="" style="endArrow=classic;html=1;fontFamily=Verdana;fontSize=21;entryX=0;entryY=0.5;entryDx=0;entryDy=0;exitX=1;exitY=0.5;exitDx=0;exitDy=0;" edge="1" parent="1" source="WtL3sDqPvHaF7ry6ejMa-26" target="WtL3sDqPvHaF7ry6ejMa-41">
          <mxGeometry width="50" height="50" relative="1" as="geometry">
            <mxPoint x="550" y="310" as="sourcePoint" />
            <mxPoint x="600" y="260" as="targetPoint" />
          </mxGeometry>
        </mxCell>
        <mxCell id="WtL3sDqPvHaF7ry6ejMa-23" value="" style="aspect=fixed;pointerEvents=1;shadow=0;dashed=0;html=1;strokeColor=none;labelPosition=center;verticalLabelPosition=bottom;verticalAlign=top;align=center;fillColor=#00188D;shape=mxgraph.mscae.enterprise.backup_local;fontSize=27;" vertex="1" parent="1">
          <mxGeometry x="280" y="510" width="49" height="50" as="geometry" />
        </mxCell>
        <mxCell id="WtL3sDqPvHaF7ry6ejMa-48" value="" style="endArrow=classic;html=1;fontFamily=Verdana;fontSize=21;exitX=1;exitY=0.5;exitDx=0;exitDy=0;entryX=0.013;entryY=0.6;entryDx=0;entryDy=0;entryPerimeter=0;" edge="1" parent="1" source="WtL3sDqPvHaF7ry6ejMa-14" target="WtL3sDqPvHaF7ry6ejMa-23">
          <mxGeometry width="50" height="50" relative="1" as="geometry">
            <mxPoint x="215" y="540" as="sourcePoint" />
            <mxPoint x="401.03999999999996" y="558" as="targetPoint" />
          </mxGeometry>
        </mxCell>
        <mxCell id="WtL3sDqPvHaF7ry6ejMa-49" value="" style="endArrow=classic;html=1;fontFamily=Verdana;fontSize=21;entryX=0;entryY=0.5;entryDx=0;entryDy=0;exitX=1;exitY=1;exitDx=0;exitDy=0;exitPerimeter=0;" edge="1" parent="1" source="WtL3sDqPvHaF7ry6ejMa-23" target="WtL3sDqPvHaF7ry6ejMa-13">
          <mxGeometry width="50" height="50" relative="1" as="geometry">
            <mxPoint x="330" y="532" as="sourcePoint" />
            <mxPoint x="600" y="420" as="targetPoint" />
            <Array as="points">
              <mxPoint x="370" y="560" />
              <mxPoint x="370" y="640" />
            </Array>
          </mxGeometry>
        </mxCell>
        <mxCell id="WtL3sDqPvHaF7ry6ejMa-50" value="" style="shape=document;whiteSpace=wrap;html=1;boundedLbl=1;fontFamily=Verdana;fontSize=21;" vertex="1" parent="1">
          <mxGeometry x="530" y="492.72999999999996" width="48.8" height="32.53" as="geometry" />
        </mxCell>
        <mxCell id="WtL3sDqPvHaF7ry6ejMa-51" value="" style="shape=document;whiteSpace=wrap;html=1;boundedLbl=1;fontFamily=Verdana;fontSize=21;" vertex="1" parent="1">
          <mxGeometry x="615.5999999999999" y="414" width="48.8" height="32.53" as="geometry" />
        </mxCell>
        <mxCell id="WtL3sDqPvHaF7ry6ejMa-52" value="" style="shape=document;whiteSpace=wrap;html=1;boundedLbl=1;fontFamily=Verdana;fontSize=21;" vertex="1" parent="1">
          <mxGeometry x="615.5999999999999" y="460.27" width="48.8" height="32.53" as="geometry" />
        </mxCell>
        <mxCell id="WtL3sDqPvHaF7ry6ejMa-53" value="" style="shape=document;whiteSpace=wrap;html=1;boundedLbl=1;fontFamily=Verdana;fontSize=21;" vertex="1" parent="1">
          <mxGeometry x="615.5999999999999" y="507.74" width="48.8" height="32.53" as="geometry" />
        </mxCell>
        <mxCell id="WtL3sDqPvHaF7ry6ejMa-54" value="" style="endArrow=classic;html=1;fontFamily=Verdana;fontSize=21;exitX=1;exitY=0.5;exitDx=0;exitDy=0;entryX=0;entryY=0.5;entryDx=0;entryDy=0;" edge="1" parent="1" target="WtL3sDqPvHaF7ry6ejMa-50" source="WtL3sDqPvHaF7ry6ejMa-11">
          <mxGeometry width="50" height="50" relative="1" as="geometry">
            <mxPoint x="480" y="486.27" as="sourcePoint" />
            <mxPoint x="796" y="588.27" as="targetPoint" />
            <Array as="points">
              <mxPoint x="510" y="509" />
            </Array>
          </mxGeometry>
        </mxCell>
        <mxCell id="WtL3sDqPvHaF7ry6ejMa-55" value="" style="endArrow=classic;html=1;fontFamily=Verdana;fontSize=21;exitX=0.5;exitY=0;exitDx=0;exitDy=0;entryX=0;entryY=0.5;entryDx=0;entryDy=0;" edge="1" parent="1" source="WtL3sDqPvHaF7ry6ejMa-50" target="WtL3sDqPvHaF7ry6ejMa-51">
          <mxGeometry width="50" height="50" relative="1" as="geometry">
            <mxPoint x="770" y="632.27" as="sourcePoint" />
            <mxPoint x="820" y="582.27" as="targetPoint" />
            <Array as="points">
              <mxPoint x="554" y="430" />
            </Array>
          </mxGeometry>
        </mxCell>
        <mxCell id="WtL3sDqPvHaF7ry6ejMa-56" value="" style="endArrow=classic;html=1;fontFamily=Verdana;fontSize=21;exitX=0.75;exitY=0;exitDx=0;exitDy=0;entryX=0;entryY=0.5;entryDx=0;entryDy=0;" edge="1" parent="1" source="WtL3sDqPvHaF7ry6ejMa-50" target="WtL3sDqPvHaF7ry6ejMa-52">
          <mxGeometry width="50" height="50" relative="1" as="geometry">
            <mxPoint x="770" y="632.27" as="sourcePoint" />
            <mxPoint x="820" y="582.27" as="targetPoint" />
            <Array as="points">
              <mxPoint x="567" y="477" />
            </Array>
          </mxGeometry>
        </mxCell>
        <mxCell id="WtL3sDqPvHaF7ry6ejMa-57" value="" style="endArrow=classic;html=1;fontFamily=Verdana;fontSize=21;entryX=0;entryY=0.5;entryDx=0;entryDy=0;" edge="1" parent="1" target="WtL3sDqPvHaF7ry6ejMa-53">
          <mxGeometry width="50" height="50" relative="1" as="geometry">
            <mxPoint x="580" y="510" as="sourcePoint" />
            <mxPoint x="820" y="582.27" as="targetPoint" />
            <Array as="points">
              <mxPoint x="600" y="510" />
              <mxPoint x="600" y="524" />
            </Array>
          </mxGeometry>
        </mxCell>
        <mxCell id="WtL3sDqPvHaF7ry6ejMa-58" value="" style="shape=document;whiteSpace=wrap;html=1;boundedLbl=1;fontFamily=Verdana;fontSize=21;" vertex="1" parent="1">
          <mxGeometry x="530" y="623.74" width="48.8" height="32.53" as="geometry" />
        </mxCell>
        <mxCell id="WtL3sDqPvHaF7ry6ejMa-59" value="" style="endArrow=classic;html=1;fontFamily=Verdana;fontSize=21;exitX=1;exitY=0.5;exitDx=0;exitDy=0;entryX=0;entryY=0.5;entryDx=0;entryDy=0;" edge="1" parent="1" source="WtL3sDqPvHaF7ry6ejMa-13" target="WtL3sDqPvHaF7ry6ejMa-58">
          <mxGeometry width="50" height="50" relative="1" as="geometry">
            <mxPoint x="550" y="470" as="sourcePoint" />
            <mxPoint x="600" y="420" as="targetPoint" />
          </mxGeometry>
        </mxCell>
        <mxCell id="WtL3sDqPvHaF7ry6ejMa-60" value="" style="endArrow=classic;html=1;fontFamily=Verdana;fontSize=21;exitX=1;exitY=0.25;exitDx=0;exitDy=0;entryX=1;entryY=0.5;entryDx=0;entryDy=0;" edge="1" parent="1" source="WtL3sDqPvHaF7ry6ejMa-53" target="WtL3sDqPvHaF7ry6ejMa-58">
          <mxGeometry width="50" height="50" relative="1" as="geometry">
            <mxPoint x="550" y="470" as="sourcePoint" />
            <mxPoint x="600" y="420" as="targetPoint" />
            <Array as="points">
              <mxPoint x="690" y="516" />
              <mxPoint x="690" y="640" />
            </Array>
          </mxGeometry>
        </mxCell>
      </root>
    </mxGraphModel>
  </diagram>
</mxfile>
